<svg width="16" height="15" viewBox="0 0 16 15" fill="none" xmlns="http://www.w3.org/2000/svg">
<path d="M3.40592 14.6067C3.18034 14.4358 3.12565 14.1555 3.26921 13.7385L4.71843 9.36352L0.972332 6.66333C0.616863 6.4104 0.486981 6.15063 0.575848 5.8772C0.664715 5.61059 0.917645 5.47388 1.36198 5.47388L5.9694 5.50122L7.37761 1.10571C7.51433 0.681885 7.71257 0.483643 7.99968 0.483643C8.27995 0.483643 8.48503 0.681885 8.62175 1.10571L10.0299 5.50122L14.6374 5.47388C15.0749 5.47388 15.3278 5.6106 15.4167 5.8772C15.5055 6.15064 15.3825 6.4104 15.027 6.66333L11.2741 9.36353L12.7301 13.7385C12.8737 14.1555 12.819 14.4358 12.5866 14.6067C12.361 14.7776 12.0739 14.7297 11.7253 14.47L7.99967 11.7424L4.27409 14.47C3.91862 14.7297 3.63835 14.7776 3.40592 14.6067Z" fill="white"/>
</svg>
